<?xml version="1.0" standalone="no"?>
<!DOCTYPE svg PUBLIC "-//W3C//DTD SVG 20010904//EN"
 "http://www.w3.org/TR/2001/REC-SVG-20010904/DTD/svg10.dtd">
<svg version="1.0" xmlns="http://www.w3.org/2000/svg"
 width="139.000000pt" height="139.000000pt" viewBox="0 0 139.000000 139.000000"
 preserveAspectRatio="xMidYMid meet">
<metadata>
Created by potrace 1.14, written by Peter Selinger 2001-2017
</metadata>
<g transform="translate(0.000000,139.000000) scale(0.100000,-0.100000)"
fill="#000000" stroke="none">
<path d="M500 1360 c-25 -10 -58 -23 -75 -30 l-30 -12 35 -26 c65 -48 337
-332 348 -363 8 -22 46 1 96 59 19 21 18 22 -37 89 -95 116 -249 278 -277 292
-8 5 -35 0 -60 -9z"/>
<path d="M832 1350 c-7 -15 -26 -48 -43 -74 -35 -52 -33 -58 31 -123 l32 -33
29 32 c30 35 109 163 109 177 0 4 -24 16 -52 25 -88 27 -93 27 -106 -4z"/>
<path d="M1089 1197 c-72 -113 -165 -218 -313 -351 l-28 -25 42 -51 c28 -33
46 -47 55 -42 68 38 298 276 354 367 l34 56 -39 40 c-63 66 -67 66 -105 6z"/>
<path d="M208 1173 c-44 -46 -52 -73 -22 -73 8 0 14 -3 14 -8 0 -4 12 -13 28
-19 15 -7 39 -23 54 -35 60 -52 69 -58 78 -58 6 0 10 -4 10 -8 0 -5 10 -13 22
-19 23 -10 22 -10 90 48 l30 25 -47 47 c-26 26 -51 47 -56 47 -6 0 -7 5 -4 10
3 6 -1 10 -9 10 -9 0 -16 5 -16 10 0 6 -5 10 -10 10 -6 0 -20 9 -32 20 -12 11
-28 20 -35 20 -7 0 -13 5 -13 10 0 24 -39 6 -82 -37z"/>
<path d="M579 1037 c-20 -18 -63 -54 -95 -82 -32 -27 -74 -64 -94 -82 l-35
-32 47 -47 47 -47 72 59 c92 75 179 154 179 163 0 3 -20 27 -43 53 l-43 46
-35 -31z"/>
<path d="M1282 966 c-18 -24 -59 -72 -91 -106 l-59 -62 47 -44 c25 -24 50 -44
54 -44 15 0 147 144 146 160 -1 26 -43 133 -54 136 -5 2 -25 -16 -43 -40z"/>
<path d="M67 946 c-8 -19 -19 -50 -22 -69 -6 -31 -4 -37 22 -53 99 -62 138
-91 220 -168 50 -47 94 -86 98 -86 13 0 95 71 95 82 0 17 -141 157 -225 223
-66 51 -152 105 -168 105 -2 0 -11 -15 -20 -34z"/>
<path d="M607 832 c-25 -20 -46 -41 -46 -47 0 -5 33 -50 75 -100 41 -49 85
-102 97 -117 12 -15 27 -28 34 -28 6 0 32 18 57 39 l45 39 -99 120 c-55 66
-103 123 -108 126 -5 3 -29 -12 -55 -32z"/>
<path d="M985 795 l-48 -44 74 -77 c41 -42 108 -103 149 -135 96 -76 88 -70
137 -96 l42 -21 14 37 c27 67 31 107 11 115 -24 9 -144 90 -174 117 -14 13
-54 51 -90 86 l-66 62 -49 -44z"/>
<path d="M110 624 c-62 -65 -71 -79 -65 -102 9 -43 47 -132 54 -132 4 0 22 19
39 43 17 23 58 71 92 106 l61 65 -38 39 c-64 65 -63 65 -143 -19z"/>
<path d="M535 643 c-157 -142 -252 -244 -314 -336 -31 -45 -32 -50 -17 -71 8
-13 33 -38 55 -55 l41 -33 17 32 c52 95 138 196 287 338 39 38 63 68 59 75
-17 29 -69 87 -78 87 -5 -1 -28 -17 -50 -37z"/>
<path d="M889 588 c-41 -33 -96 -80 -123 -104 l-49 -42 21 -29 c29 -40 69 -76
81 -72 5 2 36 29 68 59 32 30 86 79 120 109 l63 53 -45 44 c-25 24 -50 44 -54
44 -5 0 -42 -28 -82 -62z"/>
<path d="M571 436 l-43 -44 90 -103 c49 -57 126 -139 171 -183 l81 -79 63 23
c93 34 94 36 34 83 -81 64 -141 123 -244 240 -52 59 -98 107 -102 107 -4 0
-26 -20 -50 -44z"/>
<path d="M955 417 l-48 -43 64 -58 c64 -58 171 -136 186 -136 10 0 103 92 103
101 0 4 -33 28 -72 54 -40 27 -94 66 -119 87 -25 21 -50 38 -56 38 -6 0 -32
-19 -58 -43z"/>
<path d="M517 218 c-67 -97 -90 -139 -81 -148 12 -11 101 -40 124 -40 12 0 26
13 36 33 9 17 29 50 44 72 l28 41 -45 52 c-25 29 -49 52 -53 52 -5 0 -29 -28
-53 -62z"/>
</g>
</svg>
